<svg width="923" height="192" viewBox="0 0 923 192" fill="none" xmlns="http://www.w3.org/2000/svg">
<g clip-path="url(#clip0_13_25)">
<path d="M192 64.0059V127.994H128.006V192H63.9941C63.9941 156.647 35.3387 127.994 0 127.994V64.0059H63.9941V0H128.006C128.006 35.3531 156.661 64.0059 192 64.0059Z" fill="black" style="fill:black;fill-opacity:1;"/>
</g>
<path d="M313.91 70.472V141H299.318V132.68C297.014 135.581 293.984 137.885 290.23 139.592C286.56 141.213 282.635 142.024 278.454 142.024C272.907 142.024 267.915 140.872 263.478 138.568C259.126 136.264 255.67 132.851 253.11 128.328C250.635 123.805 249.398 118.344 249.398 111.944V70.472H263.862V109.768C263.862 116.083 265.44 120.947 268.598 124.36C271.755 127.688 276.064 129.352 281.526 129.352C286.987 129.352 291.296 127.688 294.454 124.36C297.696 120.947 299.318 116.083 299.318 109.768V70.472H313.91ZM358.763 142.152C353.216 142.152 348.224 141.171 343.787 139.208C339.435 137.16 335.979 134.429 333.419 131.016C330.859 127.517 329.493 123.635 329.323 119.368H344.427C344.683 122.355 346.091 124.872 348.651 126.92C351.296 128.883 354.581 129.864 358.507 129.864C362.603 129.864 365.76 129.096 367.979 127.56C370.283 125.939 371.435 123.891 371.435 121.416C371.435 118.771 370.155 116.808 367.595 115.528C365.12 114.248 361.152 112.84 355.691 111.304C350.4 109.853 346.091 108.445 342.763 107.08C339.435 105.715 336.533 103.624 334.059 100.808C331.669 97.992 330.475 94.28 330.475 89.672C330.475 85.9173 331.584 82.504 333.803 79.432C336.021 76.2747 339.179 73.8 343.275 72.008C347.456 70.216 352.235 69.32 357.611 69.32C365.632 69.32 372.075 71.368 376.939 75.464C381.888 79.4747 384.533 84.9787 384.875 91.976H370.283C370.027 88.8187 368.747 86.3013 366.443 84.424C364.139 82.5467 361.024 81.608 357.099 81.608C353.259 81.608 350.315 82.3333 348.267 83.784C346.219 85.2347 345.195 87.1547 345.195 89.544C345.195 91.4213 345.877 93 347.243 94.28C348.608 95.56 350.272 96.584 352.235 97.352C354.197 98.0347 357.099 98.9307 360.939 100.04C366.059 101.405 370.24 102.813 373.483 104.264C376.811 105.629 379.669 107.677 382.059 110.408C384.448 113.139 385.685 116.765 385.771 121.288C385.771 125.299 384.661 128.883 382.443 132.04C380.224 135.197 377.067 137.672 372.971 139.464C368.96 141.256 364.224 142.152 358.763 142.152ZM466.178 104.008C466.178 106.653 466.007 109.043 465.666 111.176H411.778C412.204 116.808 414.295 121.331 418.05 124.744C421.804 128.157 426.412 129.864 431.874 129.864C439.724 129.864 445.271 126.579 448.514 120.008H464.257C462.124 126.493 458.242 131.827 452.61 136.008C447.063 140.104 440.151 142.152 431.874 142.152C425.132 142.152 419.074 140.659 413.698 137.672C408.407 134.6 404.226 130.333 401.154 124.872C398.167 119.325 396.674 112.925 396.674 105.672C396.674 98.4187 398.124 92.0613 401.026 86.6C404.012 81.0533 408.151 76.7867 413.442 73.8C418.818 70.8133 424.962 69.32 431.874 69.32C438.53 69.32 444.46 70.7707 449.666 73.672C454.871 76.5733 458.924 80.6693 461.826 85.96C464.727 91.1653 466.178 97.1813 466.178 104.008ZM450.946 99.4C450.86 94.024 448.94 89.7147 445.186 86.472C441.431 83.2293 436.78 81.608 431.234 81.608C426.199 81.608 421.89 83.2293 418.306 86.472C414.722 89.6293 412.588 93.9387 411.906 99.4H450.946ZM475.674 105.416C475.674 98.3333 477.124 92.0613 480.026 86.6C483.012 81.1387 487.023 76.9147 492.058 73.928C497.178 70.856 502.81 69.32 508.954 69.32C514.5 69.32 519.322 70.4293 523.418 72.648C527.599 74.7813 530.927 77.4693 533.402 80.712V70.472H548.122V141H533.402V130.504C530.927 133.832 527.556 136.605 523.29 138.824C519.023 141.043 514.159 142.152 508.698 142.152C502.639 142.152 497.092 140.616 492.058 137.544C487.023 134.387 483.012 130.035 480.026 124.488C477.124 118.856 475.674 112.499 475.674 105.416ZM533.402 105.672C533.402 100.808 532.378 96.584 530.33 93C528.367 89.416 525.764 86.6853 522.522 84.808C519.279 82.9307 515.78 81.992 512.026 81.992C508.271 81.992 504.772 82.9307 501.53 84.808C498.287 86.6 495.642 89.288 493.594 92.872C491.631 96.3707 490.65 100.552 490.65 105.416C490.65 110.28 491.631 114.547 493.594 118.216C495.642 121.885 498.287 124.701 501.53 126.664C504.858 128.541 508.356 129.48 512.026 129.48C515.78 129.48 519.279 128.541 522.522 126.664C525.764 124.787 528.367 122.056 530.33 118.472C532.378 114.803 533.402 110.536 533.402 105.672ZM595.704 69.32C601.165 69.32 605.986 70.4293 610.168 72.648C614.434 74.7813 617.762 77.4693 620.152 80.712V70.472H634.872V142.152C634.872 148.637 633.506 154.397 630.776 159.432C628.045 164.552 624.077 168.563 618.872 171.464C613.752 174.365 607.608 175.816 600.44 175.816C590.882 175.816 582.946 173.555 576.632 169.032C570.317 164.595 566.733 158.536 565.88 150.856H580.344C581.453 154.525 583.8 157.469 587.384 159.688C591.053 161.992 595.405 163.144 600.44 163.144C606.328 163.144 611.064 161.352 614.648 157.768C618.317 154.184 620.152 148.979 620.152 142.152V130.376C617.677 133.704 614.306 136.52 610.04 138.824C605.858 141.043 601.08 142.152 595.704 142.152C589.56 142.152 583.928 140.616 578.808 137.544C573.773 134.387 569.762 130.035 566.776 124.488C563.874 118.856 562.424 112.499 562.424 105.416C562.424 98.3333 563.874 92.0613 566.776 86.6C569.762 81.1387 573.773 76.9147 578.808 73.928C583.928 70.856 589.56 69.32 595.704 69.32ZM620.152 105.672C620.152 100.808 619.128 96.584 617.08 93C615.117 89.416 612.514 86.6853 609.272 84.808C606.029 82.9307 602.53 81.992 598.776 81.992C595.021 81.992 591.522 82.9307 588.28 84.808C585.037 86.6 582.392 89.288 580.344 92.872C578.381 96.3707 577.4 100.552 577.4 105.416C577.4 110.28 578.381 114.547 580.344 118.216C582.392 121.885 585.037 124.701 588.28 126.664C591.608 128.541 595.106 129.48 598.776 129.48C602.53 129.48 606.029 128.541 609.272 126.664C612.514 124.787 615.117 122.056 617.08 118.472C619.128 114.803 620.152 110.536 620.152 105.672ZM718.678 104.008C718.678 106.653 718.507 109.043 718.166 111.176H664.278C664.704 116.808 666.795 121.331 670.55 124.744C674.304 128.157 678.912 129.864 684.374 129.864C692.224 129.864 697.771 126.579 701.014 120.008H716.757C714.624 126.493 710.742 131.827 705.11 136.008C699.563 140.104 692.651 142.152 684.374 142.152C677.632 142.152 671.574 140.659 666.198 137.672C660.907 134.6 656.726 130.333 653.654 124.872C650.667 119.325 649.174 112.925 649.174 105.672C649.174 98.4187 650.624 92.0613 653.526 86.6C656.512 81.0533 660.651 76.7867 665.942 73.8C671.318 70.8133 677.462 69.32 684.374 69.32C691.03 69.32 696.96 70.7707 702.166 73.672C707.371 76.5733 711.424 80.6693 714.326 85.96C717.227 91.1653 718.678 97.1813 718.678 104.008ZM703.446 99.4C703.36 94.024 701.44 89.7147 697.686 86.472C693.931 83.2293 689.28 81.608 683.734 81.608C678.699 81.608 674.39 83.2293 670.806 86.472C667.222 89.6293 665.088 93.9387 664.406 99.4H703.446ZM768.622 69.32C774.168 69.32 779.118 70.472 783.47 72.776C787.907 75.08 791.363 78.4933 793.838 83.016C796.312 87.5387 797.55 93 797.55 99.4V141H783.086V101.576C783.086 95.2613 781.507 90.44 778.35 87.112C775.192 83.6987 770.883 81.992 765.422 81.992C759.96 81.992 755.608 83.6987 752.366 87.112C749.208 90.44 747.63 95.2613 747.63 101.576V141H733.038V70.472H747.63V78.536C750.019 75.6347 753.048 73.3733 756.718 71.752C760.472 70.1307 764.44 69.32 768.622 69.32ZM833.187 82.376V121.416C833.187 124.061 833.784 125.981 834.979 127.176C836.259 128.285 838.392 128.84 841.379 128.84H850.339V141H838.819C832.248 141 827.213 139.464 823.715 136.392C820.216 133.32 818.467 128.328 818.467 121.416V82.376H810.147V70.472H818.467V52.936H833.187V70.472H850.339V82.376H833.187ZM889.388 142.152C883.841 142.152 878.849 141.171 874.412 139.208C870.06 137.16 866.604 134.429 864.044 131.016C861.484 127.517 860.118 123.635 859.948 119.368H875.052C875.308 122.355 876.716 124.872 879.276 126.92C881.921 128.883 885.206 129.864 889.132 129.864C893.228 129.864 896.385 129.096 898.604 127.56C900.908 125.939 902.06 123.891 902.06 121.416C902.06 118.771 900.78 116.808 898.22 115.528C895.745 114.248 891.777 112.84 886.316 111.304C881.025 109.853 876.716 108.445 873.388 107.08C870.06 105.715 867.158 103.624 864.684 100.808C862.294 97.992 861.1 94.28 861.1 89.672C861.1 85.9173 862.209 82.504 864.428 79.432C866.646 76.2747 869.804 73.8 873.9 72.008C878.081 70.216 882.86 69.32 888.236 69.32C896.257 69.32 902.7 71.368 907.564 75.464C912.513 79.4747 915.158 84.9787 915.5 91.976H900.908C900.652 88.8187 899.372 86.3013 897.068 84.424C894.764 82.5467 891.649 81.608 887.724 81.608C883.884 81.608 880.94 82.3333 878.892 83.784C876.844 85.2347 875.82 87.1547 875.82 89.544C875.82 91.4213 876.502 93 877.868 94.28C879.233 95.56 880.897 96.584 882.86 97.352C884.822 98.0347 887.724 98.9307 891.564 100.04C896.684 101.405 900.865 102.813 904.108 104.264C907.436 105.629 910.294 107.677 912.684 110.408C915.073 113.139 916.31 116.765 916.396 121.288C916.396 125.299 915.286 128.883 913.068 132.04C910.849 135.197 907.692 137.672 903.596 139.464C899.585 141.256 894.849 142.152 889.388 142.152Z" fill="black" style="fill:black;fill-opacity:1;"/>
<defs>
<clipPath id="clip0_13_25">
<rect width="192" height="192" fill="white" style="fill:white;fill-opacity:1;"/>
</clipPath>
</defs>
</svg>
